# xmcd
#
# Track frame offsets:
# 183
# 14983
# 37203
# 57898
# 73328
# 92808
# 111198
# 125398
# 142590
# 162065
# 179238
# 201070
# 220883
# 237470
# 250250
# 268433
#
# Disc length: 3817 seconds
#
#
# Revision: 0
# Processed by: cddbd v1.5.2PL0 Copyright (c) Steve Scherf et al.
# Submitted via: FreeRIP 2.96 
#
DISCID=fe0ee710
DTITLE=tte - tesdt
DYEAR=1111
DGENRE=tz
TTITLE0=fdsaf
TTITLE1=et
TTITLE2=A
TTITLE3=S
TTITLE4=e
TTITLE5=r
TTITLE6=r
TTITLE7=v
TTITLE8=er is
TTITLE9=defekt
TTITLE10=e
TTITLE11=des
TTITLE12=aa
TTITLE13=aad
TTITLE14=aa
TTITLE15=d
EXTD=
EXTT0=
EXTT1=
EXTT2=
EXTT3=
EXTT4=
EXTT5=
EXTT6=
EXTT7=
EXTT8=
EXTT9=
EXTT10=
EXTT11=
EXTT12=
EXTT13=
EXTT14=
EXTT15=
PLAYORDER=
